<svg id="Layer_1" data-name="Layer 1" xmlns="http://www.w3.org/2000/svg" viewBox="0 0 333.6 108.1"><defs><style>.cls-1{fill:#fff;}</style></defs><path class="cls-1" d="M364.67,204.6a26.36,26.36,0,0,1-4.89-8.92h0c-.1-.27-.2-.54-.29-.82s-.19-.64-.28-1-.13-.41-.18-.63c-.1-.37-.2-.76-.29-1.14l-.15-.68c-.14-.65-.26-1.32-.37-2,0-.24-.08-.48-.11-.73q-.09-.6-.15-1.2c0-.26-.05-.52-.08-.78l-.09-1,49.75-12.37a22.33,22.33,0,0,0-2.16-7.67,22.68,22.68,0,0,0-8.6-10A33.72,33.72,0,0,0,383,150.55l-.83-.13a39.14,39.14,0,0,0-8.93-.07,36.25,36.25,0,0,0-31.7,30.31c0,.1,0,.21,0,.31-.09.53-.16,1.06-.22,1.59,0,.32-.07.65-.1,1s0,.56-.07.84c0,.49-.05,1-.07,1.47a2.72,2.72,0,0,1,0,.28c0,.65,0,1.3,0,2v0a35.55,35.55,0,0,0,2.64,12.26c5.65,13.79,19.07,22.88,33.25,22.88a36.32,36.32,0,0,0,30.65-15.7c-.6-1.55-.85-2.22-.85-2.22C403.17,212.34,379,221,364.67,204.6Zm22.6-30.4-29.54,7.34c0-.9.06-1.8.13-2.68l0-.33c0-.3.05-.59.08-.88s.1-.81.15-1.2v0a38.05,38.05,0,0,1,1.25-5.63,33.26,33.26,0,0,1,4.54-9.53,23,23,0,0,1,6.81-6.5,16.15,16.15,0,0,1,8.62-2.42q6.35,0,9.3,3.7a12.54,12.54,0,0,1,1.69,2.84C392.34,164,392.15,172.59,387.27,174.2Z" transform="translate(-107.2 -115.17)"/><path class="cls-1" d="M276,205.34c-3.54,7-27.75,15.61-42.05-.74a27.05,27.05,0,0,1-5.14-9.68A40.74,40.74,0,0,1,227,182.45a39.62,39.62,0,0,1,1.67-11.65,33.26,33.26,0,0,1,4.54-9.53,23,23,0,0,1,6.8-6.5,16.17,16.17,0,0,1,8.62-2.42q6.36,0,9.3,3.7a14.49,14.49,0,0,1,2.95,9.31,15.49,15.49,0,0,1-.75,5.14h0l15.06-3.65c-5.45-14.73-23.63-16.67-27-16.73-28.78-.47-44.57,27.58-35.27,50.26,5.66,13.79,19.07,22.88,33.25,22.88a36.29,36.29,0,0,0,30.65-15.7Z" transform="translate(-107.2 -115.17)"/><path class="cls-1" d="M341.48,205.34c-3.54,7-27.75,15.61-42.05-.74a26.9,26.9,0,0,1-5.14-9.68,40.74,40.74,0,0,1-1.82-12.47,39.3,39.3,0,0,1,1.67-11.65,33.24,33.24,0,0,1,4.53-9.53,23.2,23.2,0,0,1,6.81-6.5,16.15,16.15,0,0,1,8.62-2.42q6.34,0,9.3,3.7a14.49,14.49,0,0,1,3,9.31,15.22,15.22,0,0,1-.76,5.14h0l15.06-3.65c-5.45-14.73-23.62-16.67-26.95-16.73-28.79-.47-44.57,27.58-35.27,50.26,5.66,13.79,19.07,22.88,33.25,22.88a36.31,36.31,0,0,0,30.65-15.7Z" transform="translate(-107.2 -115.17)"/><path class="cls-1" d="M429.32,208.6V115.17l-21.27,5.35-.15.06V121h0v1.63c.75,0,7.19,1.9,7.19,6.41v79.27c0,10-6.85,11.47-11.48,11.77h0v1.66h37.2V220C436.22,219.73,429.48,218.27,429.32,208.6Z" transform="translate(-107.2 -115.17)"/><path class="cls-1" d="M171.93,115.18l-21.07,5.31-.15.07v1.63c.75,0,7,2.29,5.24,6.41h0c-7.9,18.23-33.89,79.27-35.26,82-4.54,9.17-10.87,9.1-13.5,9.41v1.66h33s0-.67,0-1.69c0,0-12.53.15-12.53-6.62,0-4.12,6.47-20.26,8.24-24.66l43-10.83c.11.29,11.67,29.2,11.67,35.31,0,6.59-10.28,6.8-10.58,6.8v1.67h43V220c-2.32-.1-10-.21-14.51-9.52C207.21,207.89,171.93,115.18,171.93,115.18Zm5.48,58.94-39.69,10c.21-.53,21.81-52.79,22.41-54.1C161,132.25,177.41,174.12,177.41,174.12Z" transform="translate(-107.2 -115.17)"/></svg>